# File created by Blade
# Date/Time:  Tue Apr 07 21:25:57 2015
# Frame Rate: 120.000 fps
#------------------------------------------------------
:FULLY-SPECIFIED
:DEGREES
282
root 22.648410 32.441257 3.951248 68.173847 -89.692880 -44.840404
Spine -0.186646 -5.501075 -1.932554
Head 3.624269 2.585699 4.412156
LeftShoulder -7.094255 41.429589 14.643502
LeftArm 64.264332 19.621984 -63.145508
LeftForeArm -8.098216 -0.000000 11.751061
LeftHand 7.132376 -0.000000 -7.682506
LeftHandThumb1 -26.253704 0.000000 33.147579
RightShoulder 1.157485 -2.056488 -16.531961
RightArm 22.983943 -24.662748 83.176066
RightForeArm 1.538828 -0.000000 17.918227
RightHand 5.425780 0.000000 5.293642
RightHandThumb1 -24.326973 -0.000000 -32.862282
LeftUpLeg -34.094967 -2.469578 -0.589427
LeftLeg 9.161954 -0.000000 -0.000000
LeftFoot -0.923944 8.362406 -14.198246
LeftToeBase -9.918267 -0.000000 0.000000
RightUpLeg -42.469004 3.887648 -0.111809
RightLeg 41.600731 -0.000000 -0.000000
RightFoot -12.012397 -8.541173 16.274508
RightToeBase -7.478942 -0.000000 0.000000
283
root 22.628746 32.452438 3.960739 65.128852 -89.616856 -41.638638
Spine -0.259460 -5.736737 -1.851708
Head 3.373192 2.765743 4.302915
LeftShoulder -7.097959 41.277662 14.657111
LeftArm 64.662351 19.568777 -62.619717
LeftForeArm -7.941770 -0.000000 11.535229
LeftHand 7.164324 -0.000000 -7.449707
LeftHandThumb1 -26.253704 0.000000 33.147579
RightShoulder 1.296896 -1.850375 -16.592050
RightArm 23.218380 -24.747062 83.212898
RightForeArm 1.254890 -0.000000 17.946437
RightHand 5.466561 -0.000000 5.356259
RightHandThumb1 -24.326973 -0.000000 -32.862282
LeftUpLeg -34.003422 -2.277496 -0.671554
LeftLeg 8.727750 -0.000000 -0.000000
LeftFoot -0.741128 8.081428 -14.190097
LeftToeBase -9.810805 -0.000000 0.000000
RightUpLeg -43.183473 4.086367 -0.206616
RightLeg 42.387789 -0.000000 -0.000000
RightFoot -12.066561 -8.570337 16.155523
RightToeBase -6.977631 -0.000000 0.000000
284
root 22.614740 32.465789 3.966475 63.896939 -89.528484 -40.265920
Spine -0.310261 -5.878465 -1.783166
Head 3.150481 2.833194 4.248494
LeftShoulder -6.978934 41.109403 14.797817
LeftArm 64.968679 19.409707 -62.423766
LeftForeArm -7.659119 0.000000 11.353096
LeftHand 7.342671 -0.000000 -7.223734
LeftHandThumb1 -26.253704 0.000000 33.147579
RightShoulder 1.393974 -1.693369 -16.613358
RightArm 23.486110 -24.886108 83.154904
RightForeArm 1.119225 -0.000000 18.039719
RightHand 5.456560 -0.000000 5.508083
RightHandThumb1 -24.326973 -0.000000 -32.862282
LeftUpLeg -33.910579 -2.070212 -0.735732
LeftLeg 8.292437 -0.000000 -0.000000
LeftFoot -0.513168 7.825741 -14.211628
LeftToeBase -9.782439 -0.000000 0.000000
RightUpLeg -43.837599 4.371088 -0.345142
RightLeg 43.007987 -0.000000 -0.000000
RightFoot -12.113887 -8.515828 16.258826
RightToeBase -6.813026 -0.000000 0.000000
285
root 22.601645 32.481145 3.968506 62.943955 -89.436279 -39.176946
Spine -0.361138 -5.962986 -1.726584
Head 2.963156 2.852776 4.232892
LeftShoulder -6.817296 40.900463 14.990781
LeftArm 65.242476 19.230229 -62.324331
LeftForeArm -7.345199 -0.000000 11.186047
LeftHand 7.217431 0.000000 -6.949288
LeftHandThumb1 -26.253704 0.000000 33.147579
RightShoulder 1.469773 -1.508752 -16.621637
RightArm 23.708041 -25.082072 83.077430
RightForeArm 1.073629 -0.000000 18.140208
RightHand 5.400959 -0.000000 5.542211
RightHandThumb1 -24.326973 -0.000000 -32.862282
LeftUpLeg -33.824252 -1.809090 -0.816473
LeftLeg 7.884426 -0.000000 -0.000000
LeftFoot -0.262149 7.490598 -14.256001
LeftToeBase -9.783485 -0.000000 0.000000
RightUpLeg -44.412373 4.671513 -0.491017
RightLeg 43.404581 -0.000000 -0.000000
RightFoot -12.161527 -8.443198 16.152666
RightToeBase -6.873140 -0.000000 0.000000
286
root 22.587875 32.495762 3.965414 64.844382 -89.289088 -40.961814
Spine -0.391144 -6.046337 -1.605136
Head 2.782720 2.853486 4.217454
LeftShoulder -6.670205 40.674432 15.198186
LeftArm 65.406410 19.021857 -62.408727
LeftForeArm -7.088582 -0.000000 11.149900
LeftHand 7.225185 0.000000 -6.746654
LeftHandThumb1 -26.253704 0.000000 33.147579
RightShoulder 1.565965 -1.328772 -16.652938
RightArm 23.942553 -25.294390 82.999165
RightForeArm 1.057134 -0.000000 18.232189
RightHand 5.419570 -0.000000 5.546712
RightHandThumb1 -24.326973 -0.000000 -32.862282
LeftUpLeg -33.812306 -1.258590 -0.996180
LeftLeg 7.678825 -0.000000 -0.000000
LeftFoot -0.044601 6.856119 -14.236438
LeftToeBase -9.779177 -0.000000 0.000000
RightUpLeg -44.895861 4.984871 -0.564804
RightLeg 43.596882 -0.000000 -0.000000
RightFoot -12.305335 -8.334739 16.135709
RightToeBase -6.878312 -0.000000 0.000000
287
root 22.577343 32.513131 3.959229 65.500639 -89.153106 -41.472627
Spine -0.453644 -6.097425 -1.512878
Head 2.618795 2.825524 4.216873
LeftShoulder -6.495447 40.422391 15.452303
LeftArm 65.522130 18.806463 -62.587309
LeftForeArm -6.880686 0.000000 11.162308
LeftHand 7.083110 -0.000000 -6.651663
LeftHandThumb1 -26.253704 0.000000 33.147579
RightShoulder 1.655102 -1.161653 -16.665431
RightArm 24.163475 -25.489127 82.913205
RightForeArm 1.085298 -0.000000 18.356608
RightHand 5.410732 -0.000000 5.594523
RightHandThumb1 -24.326973 -0.000000 -32.862282
LeftUpLeg -33.775498 -0.932458 -1.051483
LeftLeg 7.336820 -0.000000 -0.000000
LeftFoot 0.201715 6.459454 -14.421217
LeftToeBase -9.524005 -0.000000 0.000000
RightUpLeg -45.359321 5.312752 -0.667668
RightLeg 43.595095 -0.000000 -0.000000
RightFoot -12.388442 -8.294006 15.986304
RightToeBase -7.182380 -0.000000 0.000000
288
root 22.568447 32.529189 3.951700 66.207631 -88.980006 -42.107358
Spine -0.435163 -6.065084 -1.390847
Head 2.477116 2.714293 4.228709
LeftShoulder -6.154658 40.108426 15.842309
LeftArm 65.544984 18.560421 -62.918714
LeftForeArm -6.668854 -0.000000 11.253121
LeftHand 7.049247 -0.000000 -6.358255
LeftHandThumb1 -26.253704 0.000000 33.147579
RightShoulder 1.698003 -0.948067 -16.702111
RightArm 24.329148 -25.622843 82.891613
RightForeArm 1.036497 0.000000 18.436886
RightHand 5.407360 -0.000000 5.572071
RightHandThumb1 -24.326973 -0.000000 -32.862282
LeftUpLeg -33.739292 -0.445517 -1.176693
LeftLeg 7.143169 -0.000000 -0.000000
LeftFoot 0.389737 5.901359 -14.517649
LeftToeBase -9.404037 -0.000000 0.000000
RightUpLeg -45.689082 5.581573 -0.711796
RightLeg 43.400434 -0.000000 -0.000000
RightFoot -12.629642 -8.084460 16.002766
RightToeBase -7.663979 -0.000000 0.000000
